<?xml version="1.0" encoding="UTF-8"?>
<svg width="1200pt" height="1200pt" version="1.1" viewBox="0 0 1200 1200" xmlns="http://www.w3.org/2000/svg">
 <g fill="#fff">
  <path d="m806.25 581.25c0 10.355-8.3945 18.75-18.75 18.75s-18.75-8.3945-18.75-18.75 8.3945-18.75 18.75-18.75 18.75 8.3945 18.75 18.75"/>
  <path d="m701.51 431.25h134.48l-67.238-67.238z"/>
  <path d="m879.64 421.88 9.375 9.375h40.727l-29.738-29.738z"/>
  <path d="m618.75 768.75c0 10.355-8.3945 18.75-18.75 18.75s-18.75-8.3945-18.75-18.75 8.3945-18.75 18.75-18.75 18.75 8.3945 18.75 18.75"/>
  <path d="m431.25 581.25c0 10.355-8.3945 18.75-18.75 18.75s-18.75-8.3945-18.75-18.75 8.3945-18.75 18.75-18.75 18.75 8.3945 18.75 18.75"/>
  <path d="m993.75 768.75c0 10.355-8.3945 18.75-18.75 18.75s-18.75-8.3945-18.75-18.75 8.3945-18.75 18.75-18.75 18.75 8.3945 18.75 18.75"/>
  <path d="m1125 225h-1050c-10.332 0-18.75 8.3984-18.75 18.75v712.5c0 10.352 8.418 18.75 18.75 18.75h1050c10.332 0 18.75-8.3984 18.75-18.75v-712.5c0-10.352-8.418-18.75-18.75-18.75zm-18.75 693.75c0 10.367-8.3984 18.75-18.75 18.75h-975c-10.352 0-18.75-8.3828-18.75-18.75v-637.5c0-10.367 8.3984-18.75 18.75-18.75h975c10.352 0 18.75 8.3828 18.75 18.75z"/>
  <path d="m131.25 900h937.5v-600h-937.5zm468.75-468.75h48.488l107.01-107.01c7.332-7.332 19.18-7.332 26.512 0l71.117 71.117 33.617-33.617c7.332-7.332 19.18-7.332 26.512 0l69.508 69.508h48.488v37.5h-431.25zm-375-93.75c31.012 0 56.25 25.238 56.25 56.25 0 13.125-4.707 25.07-12.281 34.648l117.82 103.11c7.7461-4.0117 16.406-6.5039 25.707-6.5039 24.414 0 45.039 15.73 52.801 37.5h269.42c7.7617-21.77 28.387-37.5 52.801-37.5 31.012 0 56.25 25.238 56.25 56.25s-25.238 56.25-56.25 56.25c-3.582 0-7.0859-0.41406-10.48-1.0703l-125.51 109.84c0.52344 1.1992 0.86328 2.4922 1.293 3.7305h269.42c7.7617-21.77 28.387-37.5 52.801-37.5 31.012 0 56.25 25.238 56.25 56.25 0 31.012-25.238 56.25-56.25 56.25-24.414 0-45.039-15.73-52.801-37.5l-269.44 0.003906c-7.7617 21.77-28.387 37.5-52.801 37.5-31.012 0-56.25-25.238-56.25-56.25s25.238-56.25 56.25-56.25c9.3008 0 17.961 2.4922 25.688 6.5078l117.82-103.11c-3.7695-4.7617-6.75-10.07-8.8125-15.898l-269.4-0.003906c-7.7617 21.77-28.387 37.5-52.801 37.5-31.012 0-56.25-25.238-56.25-56.25 0-8.0078 1.7266-15.582 4.7617-22.48l-125.53-109.84c-3.3945 0.65234-6.8984 1.0664-10.48 1.0664-31.012 0-56.25-25.238-56.25-56.25s25.238-56.25 56.25-56.25z"/>
  <path d="m243.75 393.75c0 10.355-8.3945 18.75-18.75 18.75s-18.75-8.3945-18.75-18.75 8.3945-18.75 18.75-18.75 18.75 8.3945 18.75 18.75"/>
 </g>
</svg>
