<?xml version="1.0" encoding="UTF-8"?>
<svg width="1200pt" height="1200pt" version="1.1" viewBox="0 0 1200 1200" xmlns="http://www.w3.org/2000/svg">
 <g fill="#fff">
  <path d="m1125 187.5h-1050c-31.012 0-56.25 25.238-56.25 56.25v712.5c0 31.012 25.238 56.25 56.25 56.25h1050c31.012 0 56.25-25.238 56.25-56.25v-712.5c0-31.012-25.238-56.25-56.25-56.25zm18.75 768.75c0 10.352-8.418 18.75-18.75 18.75h-1050c-10.332 0-18.75-8.3984-18.75-18.75v-712.5c0-10.352 8.418-18.75 18.75-18.75h1050c10.332 0 18.75 8.3984 18.75 18.75z"/>
  <path d="m1087.5 262.5h-975c-10.352 0-18.75 8.3828-18.75 18.75v637.5c0 10.367 8.3984 18.75 18.75 18.75h975c10.352 0 18.75-8.3828 18.75-18.75v-637.5c0-10.367-8.3984-18.75-18.75-18.75zm-18.75 637.5h-937.5v-600h937.5z"/>
  <path d="m225 450c3.582 0 7.0859-0.41406 10.48-1.0703l125.53 109.84c-3.0352 6.9023-4.7617 14.477-4.7617 22.484 0 31.012 25.238 56.25 56.25 56.25 24.414 0 45.039-15.73 52.801-37.5h269.42c2.082 5.8125 5.0625 11.137 8.8125 15.898l-117.82 103.11c-7.7461-4.0117-16.406-6.5039-25.707-6.5039-31.012 0-56.25 25.238-56.25 56.25s25.238 56.25 56.25 56.25c24.414 0 45.039-15.73 52.801-37.5h269.42c7.7617 21.77 28.387 37.5 52.801 37.5 31.012 0 56.25-25.238 56.25-56.25s-25.238-56.25-56.25-56.25c-24.414 0-45.039 15.73-52.801 37.5h-269.42c-0.44922-1.2383-0.76953-2.5312-1.293-3.7305l125.51-109.84c3.3945 0.65234 6.8984 1.0664 10.48 1.0664 31.012 0 56.25-25.238 56.25-56.25s-25.238-56.25-56.25-56.25c-24.414 0-45.039 15.73-52.801 37.5h-269.4c-7.7617-21.77-28.387-37.5-52.801-37.5-9.3008 0-17.961 2.4922-25.688 6.5078l-117.82-103.11c7.5547-9.582 12.262-21.527 12.262-34.652 0-31.012-25.238-56.25-56.25-56.25s-56.25 25.238-56.25 56.25 25.238 56.25 56.25 56.25zm375 337.5c-10.332 0-18.75-8.3984-18.75-18.75s8.418-18.75 18.75-18.75 18.75 8.3984 18.75 18.75-8.418 18.75-18.75 18.75zm375-37.5c10.332 0 18.75 8.3984 18.75 18.75s-8.418 18.75-18.75 18.75-18.75-8.3984-18.75-18.75 8.418-18.75 18.75-18.75zm-187.5-187.5c10.332 0 18.75 8.3984 18.75 18.75s-8.418 18.75-18.75 18.75-18.75-8.3984-18.75-18.75 8.418-18.75 18.75-18.75zm-356.25 18.75c0 10.352-8.418 18.75-18.75 18.75s-18.75-8.3984-18.75-18.75 8.418-18.75 18.75-18.75 18.75 8.3984 18.75 18.75zm-206.25-206.25c10.332 0 18.75 8.3984 18.75 18.75s-8.418 18.75-18.75 18.75-18.75-8.3984-18.75-18.75 8.418-18.75 18.75-18.75z"/>
  <path d="m1031.2 431.25h-48.488l-69.508-69.508c-7.332-7.332-19.18-7.332-26.512 0l-33.617 33.621-71.117-71.117c-7.332-7.332-19.18-7.332-26.512 0l-107.01 107h-48.488v37.5h431.25zm-131.25-29.738 29.738 29.738h-40.727l-9.375-9.375zm-131.25-37.5 67.238 67.238h-134.48z"/>
 </g>
</svg>
