<?xml version="1.0" encoding="UTF-8"?>
<svg width="1200pt" height="1200pt" version="1.1" viewBox="0 0 1200 1200" xmlns="http://www.w3.org/2000/svg">
 <g fill="#fff" fill-rule="evenodd">
  <path d="m723.46 297.7c-57.789 0-103.44 44.355-103.44 98.48 0 20.281 19 63.699 43.691 104.15 19.812 32.465 42.664 64.305 59.75 85.727 17.086-21.422 40.172-53.266 59.984-85.727 24.688-40.449 43.691-83.867 43.691-104.15 0-54.109-45.965-98.48-103.68-98.48zm0 59.512c21.867 0 39.438 17.695 39.438 39.91 0 22.312-17.57 39.91-39.438 39.91-21.961 0-39.438-17.574-39.438-39.91 0-22.242 17.477-39.91 39.438-39.91z"/>
  <path d="m403.01 353.85h194.2c-4.793 13.215-7.4102 27.414-7.4102 42.211 0 35.312 22.438 77.914 48.156 120.05 6.6055 10.824 13.48 21.48 20.371 31.715l-318.57 319.43c-7.4688-11.762-11.809-25.727-11.809-40.691v-396.96c0-41.766 33.797-75.746 75.062-75.746z"/>
  <path d="m856.75 383.98c9.5742 12.688 15.312 28.488 15.312 45.617v396.96c0 15.387-4.5898 29.715-12.449 41.676l-238.91-239.89 55.176-55.324c13.676 18.961 26.496 35.234 36.266 46.52 1.4141 1.6328 3.1797 2.957 5.1445 3.8555 1.9648 0.89844 4.1211 1.3672 6.2812 1.3672 2.1602 0 4.3164-0.46875 6.2812-1.3672 1.9648-0.89844 3.7305-2.2227 5.1445-3.8555 18.68-21.578 48.473-61.297 74.191-103.43 25.719-42.137 48.156-84.734 48.156-120.05 0-4.0742-0.20703-8.1055-0.59375-12.082z"/>
  <path d="m599.36 649.75 238.98 239.96c-11.879 7.9531-26.102 12.594-41.344 12.594h-393.99c-15.66 0-30.242-4.8945-42.312-13.25z"/>
 </g>
</svg>
