<?xml version="1.0" encoding="UTF-8"?>
<svg width="1200pt" height="1200pt" version="1.1" viewBox="0 0 1200 1200" xmlns="http://www.w3.org/2000/svg">
 <g fill="#fff">
  <path d="m600 25.625c-93.293-0.078125-183.68 32.48-255.48 92.043-71.809 59.559-120.52 142.36-137.69 234.06-17.172 91.699-1.7227 186.52 43.672 268.02 0.3125 0.92188 0.73438 1.8008 1.25 2.625l337.62 546.12c2.2969 3.6562 6.3086 5.875 10.625 5.875s8.3281-2.2188 10.625-5.875l337.62-546.12c0.46484-0.80859 0.88281-1.6406 1.25-2.5 45.395-81.516 60.844-176.34 43.676-268.05-17.172-91.711-65.879-174.52-137.68-234.1-71.809-59.574-162.19-92.156-255.49-92.102zm0 671.25c-72.934 0-142.88-28.973-194.45-80.547-51.574-51.57-80.547-121.52-80.547-194.45s28.973-142.88 80.547-194.45c51.57-51.574 121.52-80.547 194.45-80.547s142.88 28.973 194.45 80.547c51.574 51.57 80.547 121.52 80.547 194.45-0.085938 72.906-29.086 142.8-80.641 194.36s-121.45 80.555-194.36 80.641z"/>
  <path d="m600 171.88c-66.305 0-129.89 26.34-176.78 73.223-46.883 46.883-73.223 110.47-73.223 176.78s26.34 129.89 73.223 176.78c46.883 46.883 110.47 73.223 176.78 73.223s129.89-26.34 176.78-73.223c46.883-46.883 73.223-110.47 73.223-176.78-0.066406-66.285-26.426-129.83-73.297-176.7s-110.42-73.23-176.7-73.297zm156.25 281.38c0.21875 13.984-3.5898 27.734-10.973 39.613-7.3789 11.879-18.02 21.387-30.652 27.387l23 92.375c1.6211 6.6914-2.4492 13.438-9.125 15.125-0.98047 0.24609-1.9883 0.375-3 0.375-5.7383-0.019531-10.734-3.9336-12.125-9.5l-6.875-27.75h-200l-7.375 27.875c-1.4727 5.4961-6.4336 9.3359-12.125 9.375-1.1016 0.007812-2.1992-0.16016-3.25-0.5-3.1992-0.84375-5.9336-2.9258-7.5977-5.7852-1.6641-2.8594-2.125-6.2656-1.2773-9.4648l14-52.75 8.25-35.375c-15.59-4.0977-29.34-13.336-39.027-26.223-9.6875-12.887-14.742-28.664-14.348-44.777v-165.12c-0.66016-18.523 6.0469-36.551 18.652-50.141 12.602-13.586 30.078-21.629 48.598-22.359h178c18.52 0.73047 35.996 8.7734 48.598 22.359 12.605 13.59 19.312 31.617 18.652 50.141z"/>
  <path d="m700.25 565.88h-187.12v-0.25l9.25-39.875h167.88z"/>
  <path d="m689 240.62h-178c-11.883 0.74609-22.988 6.1602-30.902 15.055-7.9102 8.8945-11.992 20.559-11.348 32.445v165.12c-0.64453 11.887 3.4375 23.551 11.348 32.445 7.9141 8.8945 19.02 14.309 30.902 15.055h178c11.883-0.74609 22.988-6.1602 30.902-15.055 7.9102-8.8945 11.992-20.559 11.348-32.445v-165.12c0.64453-11.887-3.4375-23.551-11.348-32.445-7.9141-8.8945-19.02-14.309-30.902-15.055zm-195.25 51.125c0-7.0391 2.7891-13.793 7.7539-18.781 4.9648-4.9922 11.707-7.8125 18.746-7.8438h159.5c7.0391 0.03125 13.781 2.8516 18.746 7.8438 4.9648 4.9883 7.7539 11.742 7.7539 18.781v71.125c-0.003906 7.0273-2.7969 13.766-7.7656 18.734s-11.707 7.7617-18.734 7.7656h-159.5c-7.0273-0.003906-13.766-2.7969-18.734-7.7656s-7.7617-11.707-7.7656-18.734zm31.25 196.88c-9.8828-0.050781-19.34-4.0156-26.301-11.031-6.957-7.0156-10.852-16.504-10.824-26.387 0.027344-9.8789 3.9727-19.348 10.973-26.32 7-6.9766 16.48-10.891 26.359-10.887 9.8828 0.007812 19.359 3.9297 26.348 10.914 6.9922 6.9844 10.93 16.453 10.945 26.336-0.03125 9.9258-4 19.43-11.027 26.438-7.0273 7.0039-16.547 10.938-26.473 10.938zm87.5-24.875h-25c-6.9023 0-12.5-5.5977-12.5-12.5s5.5977-12.5 12.5-12.5h25c6.9023 0 12.5 5.5977 12.5 12.5s-5.5977 12.5-12.5 12.5zm62.5 28c-9.8828-0.050781-19.34-4.0156-26.301-11.031-6.957-7.0156-10.852-16.504-10.824-26.387 0.027344-9.8789 3.9727-19.348 10.973-26.32 7-6.9766 16.48-10.891 26.359-10.887 9.8828 0.007812 19.359 3.9297 26.348 10.914 6.9922 6.9844 10.93 16.453 10.945 26.336-0.03125 9.9258-4 19.43-11.027 26.438-7.0273 7.0039-16.547 10.938-26.473 10.938z"/>
  <path d="m537.5 451.25c0.10156 5.0781-2.8789 9.7109-7.5391 11.727-4.6641 2.0117-10.082 1.0039-13.707-2.5508-3.6289-3.5508-4.7422-8.9492-2.8242-13.648 1.918-4.7031 6.4922-7.7773 11.57-7.7773 6.8047 0.003906 12.359 5.4453 12.5 12.25z"/>
  <path d="m687.5 454.38c0.10156 5.0781-2.8789 9.7109-7.5391 11.727-4.6641 2.0117-10.082 1.0039-13.707-2.5508-3.6289-3.5508-4.7422-8.9492-2.8242-13.648 1.918-4.7031 6.4922-7.7773 11.57-7.7773 6.8047 0.003906 12.359 5.4453 12.5 12.25z"/>
  <path d="m681.25 291.75v71.125c-0.054688 0.80469-0.69531 1.4453-1.5 1.5h-159.5c-0.80469-0.054688-1.4453-0.69531-1.5-1.5v-71.125c0.003906-0.84766 0.65234-1.5547 1.5-1.625h159.5c0.84766 0.070312 1.4961 0.77734 1.5 1.625z"/>
 </g>
</svg>
