<?xml version="1.0" encoding="UTF-8"?>
<svg width="1200pt" height="1200pt" version="1.1" viewBox="0 0 1200 1200" xmlns="http://www.w3.org/2000/svg">
 <path d="m1088.4 98.398h-228v-68.398h-36v68.398h-174v-68.398h-36v68.398h-25.199v-68.398h-36v68.398h-511.2v36h511.2v210h-346.8l-164.4-171.6v51.602l144 150c3.6016 3.6016 8.3984 6 13.199 6h354v363.6c0 9.6016 8.3984 18 18 18h164.4v55.199h-693.6v36h710.4c9.6016 0 18-8.3984 18-18v-73.199h52.801v408h36v-408h30v408h36v-408h100.8c9.6016 0 18-8.3984 18-18v-568.8c0-9.6016-8.3984-18-18-18h-168v-22.801h211.2v1035.6h36v-1053.6c1.1992-9.5977-6-18-16.801-18zm-499.2 36h25.199v22.801h-25.199zm0 58.801h25.199v151.2h-25.199zm145.2 532.8h-145.2v-345.6h25.199v300c0 9.6016 8.3984 18 18 18h103.2l0.003906 27.602zm0-63.602h-85.199v-282h25.199v235.2c0 9.6016 8.3984 18 18 18h42zm0-64.797h-24v-217.2h24zm90 128.4h-52.801v-27.602h52.801zm0-63.602h-52.801v-28.801h52.801zm0-64.797h-52.801l0.003906-235.2c0-9.6016-8.3984-18-18-18h-42v-27.602h112.8zm0-316.8h-132c-9.6016 0-18 8.3984-18 18v45.602h-25.199v-90h174v26.398zm0-62.402h-174v-25.199h174zm0-61.199h-174v-22.801h174zm66 568.8h-30v-27.602h30zm0-63.602h-30v-28.801h30zm0-64.797h-30v-280.8h30zm18-316.8h-48v-26.398h90v408h-24v-363.6c0-10.801-8.3984-18-18-18zm100.8-87.602v532.8h-82.801v-27.602h42c9.6016 0 18-8.3984 18-18v-444c0-9.6016-8.3984-18-18-18h-108v-25.199z" fill="#fff"/>
</svg>
