<?xml version="1.0" encoding="UTF-8"?>
<svg width="1200pt" height="1200pt" version="1.1" viewBox="0 0 1200 1200" xmlns="http://www.w3.org/2000/svg">
 <g fill="#fff">
  <path d="m1140 773.46h-461.8l-101.76-101.76c2.3398-1.9688 4.4141-4.2344 6.1797-6.7422l27.684 27.695 70.789 70.789h150.12l308.79-0.003906v-6.5156h-457.02l-97.285-97.285c0.58984-1.2734 1.1055-2.5781 1.5352-3.9375h552.77v-23.734h-553.07l68.977-68.977h231.06l23.867-23.867 3.5508-3.5625 88.105-88.105h137.51v-3.5781h-138.96l-3.5508 3.5625-101.82 101.82-1.7891 1.7773-8.375 8.375h-231.06l-69.477 69.477c-1.332-2.5312-2.9648-4.8828-4.8359-6.9961l70.844-70.844h231.07l115.54-115.54h142.42v-3.5625h-143.9l-0.51562 0.51562 1.2617 1.2617-1.2617-1.2617-1.2617 1.2578-10.152 10.152-3.5508 3.5625-100.04 100.04h-55.773l-153.39 0.003906h-21.91l-11.93 11.93-3.5508 3.5625-56.375 56.375c-2.0898-1.9219-4.4023-3.5742-6.8984-4.9453l54.996-54.996 8.3633-8.375 11.93-11.93h231.06l91.668-91.668 3.5508-3.5625 17.328-17.328-2.5195-2.5195-11.477 11.477-8.3594 8.3711-91.668 91.668h-231.06l-3.5508 3.5625-23.867 23.867-49.801 49.812c-4.0781-1.6797-8.543-2.6172-13.223-2.6172-5.2188 0-10.176 1.1641-14.629 3.2266l-81.266-81.266-81.434-81.445-15.086-15.086-5.9414-5.9297h-8.3867l-12.934 0.011719h-274.44v5.9297h293.3l9.1445 9.1445 5.9297 5.9414 165.78 165.78c-2.5078 1.7539-4.7773 3.8398-6.7422 6.1797l-177.9-177.9h-289.52v5.9414h287.05l176.89 176.89c-0.81641 1.4023-1.5234 2.8555-2.1484 4.3672l-461.8-0.003907v23.734h460.95c0.27734 0.86328 0.58984 1.7031 0.9375 2.5312l-85.789 85.789h-376.09v3.5508h377.55l3.5625-3.5508 82.367-82.379c1.3672 2.4961 3.0234 4.8125 4.9453 6.8984l-75.48 75.48-3.5625 3.5508-8.375 8.375h-16.871l-158.18 0.003906h-205.96v3.5547h382.51l11.93-11.93 3.5625-3.5508 72.984-72.984c2.125 1.8828 4.4766 3.5039 6.9961 4.8359l-68.137 68.137-3.5625 3.5508-20.305 20.305h-28.715l-0.50391-0.003906h-356.76v3.5625h387.45l23.867-23.867h0.58984v-0.58984l69.527-69.527c3.9258 1.5352 8.1953 2.3867 12.66 2.3867 6.3359 0 12.289-1.7148 17.41-4.6914l28.152 28.141 76.68 76.68h154.88l308.79 0.003906zm-565.59-117.77c-0.12109 0.22656-0.23828 0.45703-0.37109 0.67188-1.5352 2.6875-3.5898 5.0273-6.0234 6.8984-1.6328 1.2461-3.4219 2.2695-5.3398 3.0469-2.6523 1.0664-5.543 1.668-8.5664 1.668-1.0078 0-2.0039-0.070312-2.9883-0.20312-1.4141-0.17969-2.7852-0.49219-4.1055-0.92578-2.8203-0.91016-5.3984-2.3633-7.6211-4.2227-0.91016-0.75781-1.7539-1.5977-2.543-2.4961-1.1875-1.3555-2.2188-2.8438-3.0586-4.4531-0.50391-0.96094-0.96094-1.9688-1.3203-3-0.45703-1.2852-0.80469-2.6289-1.0195-4.0078-0.19141-1.1875-0.30078-2.4102-0.30078-3.6602 0-3.0234 0.60156-5.9297 1.668-8.5664 0.63672-1.5859 1.4531-3.0859 2.4102-4.4883 0.20312-0.28906 0.42188-0.57422 0.63672-0.86328 1.8594-2.4492 4.2109-4.5 6.8867-6.0352 1.8594-1.0547 3.875-1.8711 6.0117-2.375 1.7148-0.42188 3.5039-0.63672 5.3516-0.63672 1.2461 0 2.4727 0.10938 3.6719 0.30078 1.3789 0.22656 2.7227 0.5625 4.0078 1.0195l7.4531 4.3906 2.4961 2.543 1.2617 1.6562c1.2617 1.8125 2.2578 3.8164 2.9648 5.9648 0.43359 1.3203 0.74219 2.6992 0.92578 4.1055 0.13281 0.98437 0.20312 1.9688 0.20312 2.9883 0 1.8359-0.22656 3.625-0.63672 5.3398-0.49219 1.8828-1.1758 3.6719-2.0547 5.3398z"/>
  <path d="m992.63 423.57h147.37v-3.5625h-148.85l-3.5508 3.5625-0.45703 0.45703 2.5195 2.5195z"/>
 </g>
</svg>
