<?xml version="1.0" encoding="UTF-8"?>
<svg width="1200pt" height="1200pt" version="1.1" viewBox="0 0 1200 1200" xmlns="http://www.w3.org/2000/svg">
 <g fill="#fff">
  <path d="m600 25.625c-93.293-0.078125-183.68 32.48-255.48 92.043-71.809 59.559-120.52 142.36-137.69 234.06-17.172 91.699-1.7227 186.52 43.672 268.02 0.3125 0.92188 0.73438 1.8008 1.25 2.625l337.62 546.12c2.2969 3.6562 6.3086 5.875 10.625 5.875s8.3281-2.2188 10.625-5.875l337.62-546.12c0.46484-0.80859 0.88281-1.6406 1.25-2.5 45.395-81.516 60.844-176.34 43.676-268.05-17.172-91.711-65.879-174.52-137.68-234.1-71.809-59.574-162.19-92.156-255.49-92.102zm0 671.25c-72.934 0-142.88-28.973-194.45-80.547-51.574-51.57-80.547-121.52-80.547-194.45s28.973-142.88 80.547-194.45c51.57-51.574 121.52-80.547 194.45-80.547s142.88 28.973 194.45 80.547c51.574 51.57 80.547 121.52 80.547 194.45-0.085938 72.906-29.086 142.8-80.641 194.36s-121.45 80.555-194.36 80.641z"/>
  <path d="m600 171.88c-66.305 0-129.89 26.34-176.78 73.223-46.883 46.883-73.223 110.47-73.223 176.78s26.34 129.89 73.223 176.78c46.883 46.883 110.47 73.223 176.78 73.223s129.89-26.34 176.78-73.223c46.883-46.883 73.223-110.47 73.223-176.78-0.066406-66.285-26.426-129.83-73.297-176.7s-110.42-73.23-176.7-73.297zm117.38 412.5h-234.75c-18.734-0.18359-36.637-7.7852-49.777-21.141-13.145-13.355-20.461-31.371-20.348-50.109v-165.75c-0.054688-10.008 3.8633-19.629 10.895-26.754 7.0312-7.1211 16.598-11.168 26.605-11.246h79.75l21.625-43.125c2.0664-4.25 6.3984-6.9297 11.125-6.875h75c4.7266-0.054688 9.0586 2.625 11.125 6.875l21.625 43.125h79.75c10.008 0.078125 19.574 4.125 26.605 11.246 7.0312 7.125 10.949 16.746 10.895 26.754v165.75c0.11328 18.738-7.2031 36.754-20.348 50.109-13.141 13.355-31.043 20.957-49.777 21.141z"/>
  <path d="m750 334.38h-87.5c-4.7109 0-9.0195-2.6602-11.125-6.875l-21.625-43.125h-59.5l-21.625 43.125c-2.1055 4.2148-6.4141 6.875-11.125 6.875h-87.5c-3.3828 0.0625-6.6016 1.4648-8.9492 3.9062-2.3438 2.4375-3.6211 5.7109-3.5508 9.0938v165.75c-0.13281 12.113 4.543 23.785 13 32.453 8.4609 8.6719 20.012 13.633 32.125 13.797h234.75c12.113-0.16406 23.664-5.125 32.125-13.797 8.457-8.668 13.133-20.34 13-32.453v-165.75c0.070312-3.3828-1.207-6.6562-3.5508-9.0938-2.3477-2.4414-5.5664-3.8438-8.9492-3.9062zm-150 200c-23.207 0-45.461-9.2188-61.871-25.629s-25.629-38.664-25.629-61.871 9.2188-45.461 25.629-61.871 38.664-25.629 61.871-25.629 45.461 9.2188 61.871 25.629 25.629 38.664 25.629 61.871c-0.027344 23.199-9.2539 45.441-25.656 61.844s-38.645 25.629-61.844 25.656zm137.5-150h-25c-6.9023 0-12.5-5.5977-12.5-12.5s5.5977-12.5 12.5-12.5h25c6.9023 0 12.5 5.5977 12.5 12.5s-5.5977 12.5-12.5 12.5z"/>
  <path d="m662.5 446.88c0 34.52-27.98 62.5-62.5 62.5s-62.5-27.98-62.5-62.5 27.98-62.5 62.5-62.5 62.5 27.98 62.5 62.5"/>
 </g>
</svg>
