<?xml version="1.0" encoding="UTF-8"?>
<svg width="1200pt" height="1200pt" version="1.1" viewBox="0 0 1200 1200" xmlns="http://www.w3.org/2000/svg">
 <path d="m672.02 732.25h98.168c10.348 0 18.738-8.5195 18.738-18.793v-283.49c0-31.305-25.379-56.68-56.57-56.68h-264.72c-31.242 0-56.566 25.238-56.566 56.68v283.49c0 10.379 8.6016 18.793 18.738 18.793h98.332l-31.488 94.465 17.926 5.9766 8.2891-24.867h154.43l8.2891 24.867 17.922-5.9766zm-19.918 0h-104.04l-6.3008 18.895h116.64zm12.598 37.789h-129.24l-6.2969 18.891h141.83zm-404.77-510.11h680.14v680.14h-680.14zm453.54 170.04h-226.94c-20.805 0-37.672 16.754-37.672 37.75v113.39h302.29v-113.39c0-20.848-16.898-37.75-37.672-37.75zm-170.15-28.34c0-5.2148 4.3047-9.4453 9.2734-9.4453h94.805c5.125 0 9.2773 4.3828 9.2773 9.4453 0 5.2188-4.3047 9.4492-9.2773 9.4492h-94.805c-5.1211 0-9.2734-4.3828-9.2734-9.4492zm-66.125 292.84c15.648 0 28.34-12.688 28.34-28.34 0-15.648-12.691-28.336-28.34-28.336-15.652 0-28.34 12.688-28.34 28.336 0 15.652 12.688 28.34 28.34 28.34zm245.61 0c15.652 0 28.34-12.688 28.34-28.34 0-15.648-12.688-28.336-28.34-28.336-15.652 0-28.34 12.688-28.34 28.336 0 15.652 12.688 28.34 28.34 28.34z" fill="#D47C2E" fill-rule="evenodd"/>
</svg>
